<?xml version="1.0" standalone="no"?>
<!DOCTYPE svg PUBLIC "-//W3C//DTD SVG 20010904//EN"
 "http://www.w3.org/TR/2001/REC-SVG-20010904/DTD/svg10.dtd">
<svg version="1.0" xmlns="http://www.w3.org/2000/svg"
 width="640.000000pt" height="480.000000pt" viewBox="0 0 640.000000 480.000000"
 preserveAspectRatio="xMidYMid meet">

<g transform="translate(0.000000,480.000000) scale(0.100000,-0.100000)"
fill="#000000" stroke="none">
<path d="M2330 3505 l0 -615 -220 0 -220 0 0 -170 0 -170 220 0 220 0 0 -790
0 -790 170 0 170 0 0 790 0 790 168 -2 167 -3 3 -787 2 -788 168 0 167 0 305
452 c168 249 407 605 533 791 l227 337 0 170 0 170 -532 2 -533 3 -3 613 -2
612 -165 0 -165 0 -2 -612 -3 -613 -167 -3 -168 -2 0 615 0 615 -170 0 -170 0
0 -615z m1657 -968 c-11 -29 -629 -937 -638 -937 -5 0 -9 186 -9 475 l0 475
326 0 c259 0 325 -3 321 -13z"/>
</g>
</svg>
